<?xml version="1.0" encoding="iso-8859-1"?>
<!-- Generator: Adobe Illustrator 19.1.0, SVG Export Plug-In . SVG Version: 6.00 Build 0)  -->
<svg version="1.1" id="Capa_1" xmlns="http://www.w3.org/2000/svg" xmlns:xlink="http://www.w3.org/1999/xlink" x="0px" y="0px"
	 viewBox="0 0 68.017 68.017" style="enable-background:new 0 0 68.017 68.017;" xml:space="preserve">
<g>
	<g>
		<path d="M17.545,42.089c0.645,1.078,1.282,2.127,1.882,3.18c2.095,3.673,4.167,7.329,6.238,11.017l0.255,0.394
			c0.353,0.627,1.015,0.704,1.734,0.708l12.878-0.371c0.003,0,0.007,0,0.01,0c0.724,0,1.39,0.042,1.744-0.589l7.996-13.917
			c0.384-0.684,0.774-1.316,1.165-1.998c2.969-5.173,6.037-10.5,6.037-17.048C57.484,10.521,46.953,0,34.008,0
			S10.533,10.533,10.533,23.477C10.533,30.378,14.258,36.599,17.545,42.089z M34.008,4.015c10.739,0,19.476,8.736,19.476,19.476
			c0,5.483-2.675,10.146-5.507,15.081c-0.396,0.692-0.794,1.384-1.185,2.079l-7.419,13.226l-10.535-0.05
			c-1.971-3.508-3.942-7.015-5.936-10.509c-0.614-1.077-1.265-2.165-1.925-3.268c-3.168-5.292-6.444-10.764-6.444-16.56
			C14.533,12.751,23.269,4.015,34.008,4.015z"/>
		<path d="M42.472,61.517c0-0.828-0.672-1.5-1.5-1.5h-12c-0.829,0-1.5,0.672-1.5,1.5s0.671,1.5,1.5,1.5h12
			C41.8,63.017,42.472,62.345,42.472,61.517z"/>
		<path d="M29.972,65.017c-0.829,0-1.5,0.672-1.5,1.5s0.671,1.5,1.5,1.5h10c0.828,0,1.5-0.672,1.5-1.5s-0.672-1.5-1.5-1.5H29.972z"
			/>
	</g>
</g>
<g>
</g>
<g>
</g>
<g>
</g>
<g>
</g>
<g>
</g>
<g>
</g>
<g>
</g>
<g>
</g>
<g>
</g>
<g>
</g>
<g>
</g>
<g>
</g>
<g>
</g>
<g>
</g>
<g>
</g>
</svg>
